<?xml version="1.0" standalone="no"?>
<!DOCTYPE svg PUBLIC "-//W3C//DTD SVG 20010904//EN"
 "http://www.w3.org/TR/2001/REC-SVG-20010904/DTD/svg10.dtd">
<svg version="1.0" xmlns="http://www.w3.org/2000/svg"
 width="512.000000pt" height="512.000000pt" viewBox="0 0 512.000000 512.000000"
 preserveAspectRatio="xMidYMid meet">

<g transform="translate(0.000000,512.000000) scale(0.100000,-0.100000)"
fill="#000000" stroke="none">
<path d="M1505 4786 c-16 -8 -263 -247 -548 -533 l-517 -519 2 -1459 3 -1460
30 -54 c37 -66 92 -115 162 -141 52 -19 77 -20 779 -20 l726 0 841 -141 c651
-109 856 -140 902 -136 104 8 195 69 240 160 21 45 70 320 326 1852 240 1435
300 1812 296 1861 -8 104 -70 194 -168 244 -28 15 -155 40 -416 84 l-376 62
-21 45 c-29 62 -96 124 -162 148 -54 21 -69 21 -1062 21 -827 -1 -1012 -3
-1037 -14z m2049 -171 c18 -9 42 -33 54 -54 l22 -39 0 -1816 c0 -1971 3 -1853
-55 -1906 l-27 -25 -1414 -3 c-1558 -2 -1463 -6 -1504 60 -20 33 -20 47 -20
1406 l0 1372 464 0 c320 0 473 4 496 11 59 21 60 27 60 544 l0 465 946 0 c830
0 950 -2 978 -15z m-2099 -822 c-3 -10 -85 -13 -367 -13 l-363 0 365 365 365
365 3 -352 c1 -194 0 -359 -3 -365z m2688 562 c183 -30 347 -62 365 -70 40
-18 72 -69 72 -113 0 -60 -592 -3576 -608 -3611 -20 -43 -66 -71 -117 -70 -22
0 -179 24 -350 54 l-310 53 171 1 c121 1 185 5 222 16 68 20 151 96 183 167
l24 53 3 1788 c1 983 5 1787 8 1787 3 0 154 -25 337 -55z"/>
<path d="M2055 3898 c-51 -27 -62 -98 -22 -136 l23 -22 563 0 562 0 24 25 c42
41 31 105 -22 133 -30 16 -1099 16 -1128 0z"/>
<path d="M1162 3285 c-55 -24 -66 -91 -22 -135 20 -20 38 -20 1033 -20 l1014
0 21 23 c31 33 29 87 -4 118 l-26 24 -991 2 c-840 2 -997 0 -1025 -12z"/>
<path d="M1140 2660 c-45 -45 -33 -112 25 -136 30 -12 172 -14 1024 -12 l989
3 26 24 c34 32 36 88 3 119 l-23 22 -1012 0 c-994 0 -1012 0 -1032 -20z"/>
<path d="M1140 2050 c-42 -42 -32 -111 20 -137 20 -10 231 -12 1022 -10 l996
2 26 24 c36 34 36 92 0 120 -27 21 -30 21 -1035 21 -991 0 -1009 0 -1029 -20z"/>
<path d="M1142 1440 c-46 -43 -37 -109 18 -137 20 -10 243 -13 1013 -13 1050
0 1033 -1 1051 45 13 35 6 76 -19 100 l-24 25 -1009 0 c-999 0 -1008 0 -1030
-20z"/>
</g>
</svg>
