<svg width="234" height="77" viewBox="0 0 234 77" fill="none" xmlns="http://www.w3.org/2000/svg">
<path d="M57.3634 37L69.5606 10.8631H82.1286L94.3258 37H85.6135L76.0114 14.0143H75.789L66.0757 37H57.3634ZM66.7801 32.8107V26.4711H84.9832V32.8107H66.7801ZM98.251 37V10.8631H120.458C123.103 10.8631 125.191 11.3574 126.724 12.346C128.256 13.3346 129.022 14.8423 129.022 16.869C129.022 17.9812 128.763 18.9698 128.244 19.8349C127.725 20.6999 127.032 21.392 126.167 21.911C125.302 22.4053 124.289 22.7143 123.127 22.8379V23.0603C124.709 23.1345 126.069 23.4434 127.206 23.9871C128.342 24.5309 129.195 25.2724 129.764 26.2116C130.357 27.126 130.653 28.2135 130.653 29.474C130.653 31.8962 129.64 33.7622 127.613 35.0722C125.611 36.3574 122.893 37 119.457 37H98.251ZM106.704 35.3317L102.144 31.5872H118.122C119.408 31.5872 120.359 31.3401 120.977 30.8458C121.62 30.3515 121.941 29.6471 121.941 28.7326C121.941 27.8428 121.632 27.1631 121.014 26.6935C120.396 26.1992 119.432 25.952 118.122 25.952H103.441V21.4661H117.418C118.382 21.4661 119.173 21.2561 119.791 20.8359C120.409 20.391 120.718 19.7237 120.718 18.8339C120.718 17.9441 120.409 17.2892 119.791 16.869C119.198 16.4241 118.419 16.2017 117.455 16.2017H102.144L106.704 12.4572V35.3317ZM135.252 37V10.8631H143.445V31.1424H143.631L156.607 10.8631H168.804V37H160.648V16.6095H160.388L147.449 37H135.252ZM172.748 37L184.945 10.8631H197.513L209.71 37H200.998L191.396 14.0143H191.173L181.46 37H172.748ZM182.165 32.8107V26.4711H200.368V32.8107H182.165Z" fill="black"/>
<path d="M59.0262 45.2933V64.5312H56.2974V40.6543H59.7425L68.4747 61.5296L77.1727 40.6543H80.5837V64.5312H77.8549V45.3615L69.7026 64.5312H67.2126L59.0262 45.2933ZM82.674 64.5312L93.6914 40.6543H96.659L107.642 64.5312H104.743L101.741 58.0163H88.6432L85.6415 64.5312H82.674ZM89.8029 55.5262H100.582L95.1923 43.8607L89.8029 55.5262ZM109.828 64.5312V40.6543H112.557V61.9389H125.28V40.6543H128.009V61.9389H140.732V40.6543H143.46V64.5312H109.828ZM169.134 64.5312H166.405V45.5662L150.817 64.5312H148.668V40.6543H151.397V59.5853L166.985 40.6543H169.134V64.5312ZM174.35 64.5312V40.6543H177.079V51.2625H191.235V40.6543H193.964V64.5312H191.235V53.889H177.079V64.5312H174.35ZM196.163 64.5312L207.18 40.6543H210.148L221.131 64.5312H218.232L215.23 58.0163H202.132L199.13 64.5312H196.163ZM203.292 55.5262H214.07L208.681 43.8607L203.292 55.5262Z" fill="black"/>
<path d="M24.0806 14.6355L1.88351 54.0713C1.22028 55.2496 2.35836 56.6256 3.64014 56.1951L19.8898 50.7375C20.3744 50.5747 20.9088 50.6743 21.3023 51.0006L37.7215 64.6182C38.8337 65.5406 40.4719 64.4813 40.0871 63.0886L26.7902 14.9665C26.4393 13.6965 24.7268 13.4874 24.0806 14.6355Z" stroke="black" stroke-width="2.95276"/>
<path d="M35.5004 17.8469L22.0453 43.2894C21.4774 44.3633 22.3771 45.6253 23.5774 45.4384L34.9756 43.6645C35.3848 43.6009 35.8019 43.712 36.1252 43.9707L43.7766 50.0948C44.8853 50.9822 46.485 49.9457 46.1282 48.5712L38.2346 18.1661C37.8959 16.8618 36.1304 16.6557 35.5004 17.8469Z" fill="white"/>
</svg>
