<?xml version="1.0" encoding="UTF-8" standalone="no"?>
<!DOCTYPE svg PUBLIC "-//W3C//DTD SVG 1.1//EN" "http://www.w3.org/Graphics/SVG/1.1/DTD/svg11.dtd">
<!-- Created with Vectornator (http://vectornator.io/) -->
<svg height="512.0px" stroke-miterlimit="10" style="fill-rule:nonzero;clip-rule:evenodd;stroke-linecap:round;stroke-linejoin:round;" version="1.1" viewBox="0 0 512 512" width="512.0px" xml:space="preserve" xmlns="http://www.w3.org/2000/svg" xmlns:xlink="http://www.w3.org/1999/xlink">
<defs/>
<g id="Слой-1">
<g opacity="1">
<path d="M135.076 325.026L135.076 134.41L167.991 229.695L190.387 173.713L158.753 81.6489L91.0001 81.6489L91.0001 139.701L22.596 84.6098L22.3098 198.521L91.0001 252.901L91.0001 266.067L51.217 237.16L51.217 313.005L91.0001 345.347L91.0001 430.351L143.663 430.351L183.16 325.026L326.937 325.026L367.479 430.351L421.286 430.351L421.286 345.347L461.642 313.005L461.642 237.16L422.431 266.067L422.431 252.901L489.69 198.521L489.69 86.3271L421.286 139.701L421.286 81.6489L352.882 81.6489L321.971 175.052L344.183 228.573L377.782 134.41L377.236 325.026L278.467 81.6489L231.904 81.6489L135.076 325.026ZM198.652 287.642L255.699 130.802L312.745 287.642L198.652 287.642Z" fill="#447572" fill-rule="nonzero" opacity="1" stroke="none"/>
<path d="M203.832 333.567L243.272 333.567L256 369.243L268.729 333.029L309.425 333.567L276.976 430.351L235.743 430.351L203.832 333.567Z" fill="#447572" fill-rule="nonzero" opacity="1" stroke="none"/>
</g>
</g>
</svg>
