<?xml version="1.0" encoding="UTF-8"?>
<svg id="_Слой_1" data-name="Слой_1" xmlns="http://www.w3.org/2000/svg" version="1.1" viewBox="0 0 174.96 49.24">
  <!-- Generator: Adobe Illustrator 30.1.0, SVG Export Plug-In . SVG Version: 2.1.1 Build 136)  -->
  <defs>
    <style>
      .st0 {
        fill: #b1ec52;
      }

      .st1 {
        fill: #3f3f3f;
      }

      .st2 {
        fill: white;
      }
    </style>
  </defs>
  <path class="st0" d="M12.31,0C5.51,0,0,5.51,0,12.31v24.62c0,6.8,5.51,12.31,12.31,12.31h24.62c6.8,0,12.31-5.51,12.31-12.31V0H12.31Z"/>
  <path class="st1" d="M40.69,18.46h-5.91l-5.62,6.16v-12.31h-4.56v2.98c-.15-.19-.31-.38-.48-.57-1.66-1.76-4.05-2.65-7.11-2.65-3.53,0-5.54,1.58-6.61,2.91-1.32,1.65-1.91,3.9-1.5,5.73,1.06,4.74,5.46,5.5,8.69,5.92,2.55.33,4.99.8,4.93,3.07-.07,2.36-2.73,2.94-4.48,2.94-4.55,0-4.7-3.36-4.7-3.36h-4.89c.07,1.26.45,3.29,2.01,5.03,1.7,1.91,4.26,2.87,7.59,2.87,2.56,0,4.89-.83,6.55-2.31v2.03h4.56v-5.81l1.61-1.77,4.61,7.58h5.31l-6.71-11.09,6.71-7.35ZM13.46,19.66c-.4-1.76,1.35-3.32,3.63-3.32,2.05,0,4.1.46,4.88,3.31h2.62v4.36c-3.27-2.69-10.37-1-11.13-4.35Z"/>
  <g>
    <path class="st2" d="M69.82,23.33c-.13-.23-.31-.46-.49-.69-.2-.2-.43-.41-.74-.59-.28-.18-.64-.31-1.05-.43-.41-.1-.87-.15-1.43-.15-.23,0-.51.03-.82.08-.31.08-.64.18-.97.33-.33.18-.66.41-1,.69-.31.28-.61.66-.84,1.12-.28.49-.49,1.05-.64,1.71-.15.66-.23,1.46-.23,2.38,0,1,.1,1.86.31,2.66.2.79.51,1.46.89,1.99.38.54.87.94,1.43,1.23.54.28,1.17.43,1.86.43.82,0,1.46-.13,1.97-.36.51-.26.92-.56,1.23-.92.31-.36.54-.74.66-1.12.15-.38.28-.74.36-1.02h3.81c-.2,1.15-.54,2.15-1.02,2.99-.49.84-1.07,1.53-1.76,2.09-.69.56-1.46.97-2.32,1.25-.87.28-1.79.41-2.76.41-1.35,0-2.58-.23-3.63-.69-1.05-.43-1.94-1.1-2.66-1.92-.72-.84-1.25-1.86-1.63-3.06-.38-1.17-.56-2.5-.56-3.96,0-1.12.1-2.15.33-3.06.2-.92.51-1.74.89-2.45.38-.72.84-1.3,1.38-1.84s1.07-.94,1.71-1.28c.61-.33,1.25-.59,1.94-.77.69-.15,1.38-.23,2.07-.23,1,0,1.89.1,2.66.31.77.23,1.46.49,2.04.84.59.36,1.07.74,1.48,1.2.41.46.77.92,1.02,1.38.26.49.43.97.59,1.43.13.49.2.92.23,1.33h-3.83l-.18-.61c-.08-.23-.18-.43-.31-.69Z"/>
    <path class="st2" d="M84.34,23.35h4.7l-5.62,5.64,5.85,7.94h-4.6l-3.98-5.75-1.43,1.46v4.29h-3.52v-13.59h3.52v5.16l5.08-5.16Z"/>
    <path class="st2" d="M89.1,27.26c.31-.89.77-1.66,1.38-2.3.61-.64,1.33-1.12,2.2-1.48.87-.36,1.81-.54,2.89-.54s2.07.18,2.94.54c.87.36,1.58.84,2.17,1.48.59.64,1.05,1.4,1.38,2.3.31.87.46,1.84.46,2.89s-.15,2.02-.46,2.89c-.33.89-.79,1.66-1.38,2.3-.59.61-1.3,1.12-2.17,1.48-.87.36-1.84.54-2.94.54s-2.02-.18-2.89-.54c-.87-.36-1.58-.87-2.2-1.48-.61-.64-1.07-1.4-1.38-2.3-.31-.87-.49-1.84-.49-2.89s.18-2.02.49-2.89ZM92.47,31.65c.1.51.28.97.56,1.35.26.41.59.74,1,.97s.92.36,1.53.36,1.17-.13,1.58-.36c.41-.23.74-.56,1-.94.26-.38.43-.82.54-1.33.1-.51.15-1.02.15-1.56s-.05-1.05-.15-1.56c-.1-.51-.28-.97-.54-1.35-.26-.38-.59-.69-1-.95-.41-.23-.95-.33-1.58-.33s-1.12.13-1.53.36c-.41.23-.74.56-1,.94-.28.41-.46.84-.56,1.35-.1.51-.18,1.02-.18,1.53s.08,1.02.18,1.51Z"/>
    <path class="st2" d="M109.15,26.21l-.05,2.53c-.05,1.43-.15,2.68-.28,3.75-.15,1.07-.38,1.97-.69,2.68-.33.72-.77,1.25-1.3,1.63-.54.36-1.25.54-2.09.54-.41,0-.74-.03-1.05-.05-.31-.05-.54-.13-.74-.2v-2.96c.13.05.28.1.46.15.18.03.38.05.64.05.28,0,.51-.08.72-.26.2-.15.38-.43.54-.87.15-.43.26-1.02.36-1.79.08-.77.13-1.74.15-2.94l.1-5.13h10.93v13.59h-3.5v-10.73h-4.19Z"/>
    <path class="st2" d="M128.01,23.35h4.7l-5.62,5.64,5.85,7.94h-4.6l-3.98-5.75-1.43,1.46v4.29h-3.52v-13.59h3.52v5.16l5.08-5.16Z"/>
    <path class="st2" d="M132.77,27.26c.31-.89.77-1.66,1.38-2.3.61-.64,1.33-1.12,2.2-1.48.87-.36,1.81-.54,2.89-.54s2.07.18,2.94.54c.87.36,1.58.84,2.17,1.48.59.64,1.05,1.4,1.38,2.3.31.87.46,1.84.46,2.89s-.15,2.02-.46,2.89c-.33.89-.79,1.66-1.38,2.3-.59.61-1.3,1.12-2.17,1.48-.87.36-1.84.54-2.94.54s-2.02-.18-2.89-.54c-.87-.36-1.58-.87-2.2-1.48-.61-.64-1.07-1.4-1.38-2.3-.31-.87-.49-1.84-.49-2.89s.18-2.02.49-2.89ZM136.15,31.65c.1.51.28.97.56,1.35.26.41.59.74,1,.97.41.23.92.36,1.53.36s1.17-.13,1.58-.36c.41-.23.74-.56,1-.94.26-.38.43-.82.54-1.33.1-.51.15-1.02.15-1.56s-.05-1.05-.15-1.56c-.1-.51-.28-.97-.54-1.35-.26-.38-.59-.69-1-.95-.41-.23-.95-.33-1.58-.33s-1.12.13-1.53.36c-.41.23-.74.56-1,.94-.28.41-.46.84-.56,1.35-.1.51-.18,1.02-.18,1.53s.08,1.02.18,1.51Z"/>
    <path class="st2" d="M156.67,23.51c.56.13,1.07.31,1.53.56.43.28.79.64,1.05,1.1.26.46.38,1.05.38,1.76,0,.41-.03.77-.13,1.05-.08.31-.2.56-.36.77-.15.23-.33.41-.51.54-.2.15-.38.28-.61.38.69.23,1.2.61,1.56,1.15.36.54.54,1.15.54,1.89,0,.64-.1,1.23-.31,1.74-.23.51-.54.97-.95,1.33-.41.38-.89.66-1.48.87-.59.2-1.23.31-1.94.31h-7.61v-13.59h7.02c.64,0,1.23.05,1.81.15ZM155.09,28.59c.26-.08.46-.15.61-.28.15-.1.28-.26.33-.43.08-.18.1-.41.1-.64,0-.2-.03-.38-.1-.56-.05-.15-.18-.31-.33-.43-.13-.1-.33-.2-.59-.28-.26-.08-.56-.1-.94-.1h-2.81v2.84h2.71c.41,0,.74-.05,1.02-.1ZM155.32,34.28c.31-.13.54-.26.72-.43.15-.15.28-.33.33-.54.05-.2.08-.38.08-.56,0-.33-.03-.61-.13-.84-.08-.2-.2-.38-.41-.51-.18-.15-.43-.23-.74-.28-.31-.05-.66-.08-1.1-.08h-2.71v3.4h2.71c.51,0,.94-.05,1.25-.15Z"/>
    <path class="st2" d="M161.55,27.26c.31-.89.77-1.66,1.38-2.3.61-.64,1.33-1.12,2.2-1.48.87-.36,1.81-.54,2.89-.54s2.07.18,2.94.54c.87.36,1.58.84,2.17,1.48.59.64,1.05,1.4,1.38,2.3.31.87.46,1.84.46,2.89s-.15,2.02-.46,2.89c-.33.89-.79,1.66-1.38,2.3-.59.61-1.3,1.12-2.17,1.48-.87.36-1.84.54-2.94.54s-2.02-.18-2.89-.54c-.87-.36-1.58-.87-2.2-1.48-.61-.64-1.07-1.4-1.38-2.3-.31-.87-.49-1.84-.49-2.89s.18-2.02.49-2.89ZM164.92,31.65c.1.51.28.97.56,1.35.26.41.59.74,1,.97.41.23.92.36,1.53.36s1.17-.13,1.58-.36c.41-.23.74-.56,1-.94.26-.38.43-.82.54-1.33.1-.51.15-1.02.15-1.56s-.05-1.05-.15-1.56c-.1-.51-.28-.97-.54-1.35-.26-.38-.59-.69-1-.95-.41-.23-.94-.33-1.58-.33s-1.12.13-1.53.36c-.41.23-.74.56-1,.94-.28.41-.46.84-.56,1.35-.1.51-.18,1.02-.18,1.53s.08,1.02.18,1.51Z"/>
  </g>
</svg>