<svg xmlns="http://www.w3.org/2000/svg" version="1.1" xmlns:xlink="http://www.w3.org/1999/xlink" width="133.3592258639941px" height="128.1543326702302px"><svg height="128.1543326702302px" stroke-miterlimit="10" style="fill-rule:nonzero;clip-rule:evenodd;stroke-linecap:round;stroke-linejoin:round;" version="1.1" viewBox="0 0 133.359 128.154" width="133.3592258639941px" xml:space="preserve" xmlns="http://www.w3.org/2000/svg" xmlns:xlink="http://www.w3.org/1999/xlink">
<defs></defs>
<g id="SvgjsG1020">
<path d="M6.67961 18.2515C6.67961 10.4232 13.0257 4.07717 20.8539 4.07717L112.505 4.07717C120.334 4.07717 126.68 10.4232 126.68 18.2515L126.68 109.903C126.68 117.731 120.334 124.077 112.505 124.077L20.8539 124.077C13.0257 124.077 6.67961 117.731 6.67961 109.903L6.67961 18.2515Z" fill="#ffffff" fill-rule="nonzero" opacity="1" stroke="none"></path>
<path d="M66.9859 12.3851L20.6975 94.622C19.3144 97.0792 21.6877 99.9486 24.3606 99.0509L58.2467 87.6699C59.2572 87.3304 60.3716 87.5381 61.1922 88.2186L95.4318 116.616C97.7511 118.539 101.167 116.33 100.365 113.426L72.6363 13.0753C71.9046 10.427 68.3334 9.99092 66.9859 12.3851Z" fill="none" opacity="1" stroke="#000000" stroke-linecap="butt" stroke-linejoin="miter" stroke-width="6.1575"></path>
<path d="M90.8 19.0819L62.7416 72.1381C61.5573 74.3776 63.4335 77.0093 65.9365 76.6195L89.7056 72.9203C90.5589 72.7877 91.4287 73.0194 92.1029 73.5589L108.059 86.3297C110.371 88.1802 113.707 86.0188 112.963 83.1525L96.5017 19.7476C95.7954 17.0277 92.1138 16.5979 90.8 19.0819Z" fill="#ffffff" fill-rule="nonzero" opacity="1" stroke="none"></path>
</g>
</svg><style>@media (prefers-color-scheme: light) { :root { filter: none; } }
@media (prefers-color-scheme: dark) { :root { filter: none; } }
</style></svg>